<svg id="visual" viewBox="0 0 900 600" width="900" height="600" xmlns="http://www.w3.org/2000/svg" xmlns:xlink="http://www.w3.org/1999/xlink" version="1.1"><path d="M0 67L11.5 66C23 65 46 63 69 57C92 51 115 41 138.2 50C161.3 59 184.7 87 207.8 99C231 111 254 107 277 95C300 83 323 63 346 49C369 35 392 27 415.2 28C438.3 29 461.7 39 484.8 51C508 63 531 77 554 85C577 93 600 95 623 100C646 105 669 113 692.2 108C715.3 103 738.7 85 761.8 68C785 51 808 35 831 28C854 21 877 23 888.5 24L900 25L900 0L888.5 0C877 0 854 0 831 0C808 0 785 0 761.8 0C738.7 0 715.3 0 692.2 0C669 0 646 0 623 0C600 0 577 0 554 0C531 0 508 0 484.8 0C461.7 0 438.3 0 415.2 0C392 0 369 0 346 0C323 0 300 0 277 0C254 0 231 0 207.8 0C184.7 0 161.3 0 138.2 0C115 0 92 0 69 0C46 0 23 0 11.5 0L0 0Z" fill="#001b90"></path><path d="M0 169L11.5 166C23 163 46 157 69 147C92 137 115 123 138.2 136C161.3 149 184.7 189 207.8 191C231 193 254 157 277 137C300 117 323 113 346 112C369 111 392 113 415.2 116C438.3 119 461.7 123 484.8 126C508 129 531 131 554 131C577 131 600 129 623 136C646 143 669 159 692.2 161C715.3 163 738.7 151 761.8 139C785 127 808 115 831 108C854 101 877 99 888.5 98L900 97L900 23L888.5 22C877 21 854 19 831 26C808 33 785 49 761.8 66C738.7 83 715.3 101 692.2 106C669 111 646 103 623 98C600 93 577 91 554 83C531 75 508 61 484.8 49C461.7 37 438.3 27 415.2 26C392 25 369 33 346 47C323 61 300 81 277 93C254 105 231 109 207.8 97C184.7 85 161.3 57 138.2 48C115 39 92 49 69 55C46 61 23 63 11.5 64L0 65Z" fill="#00269a"></path><path d="M0 241L11.5 260C23 279 46 317 69 320C92 323 115 291 138.2 306C161.3 321 184.7 383 207.8 380C231 377 254 309 277 290C300 271 323 301 346 312C369 323 392 315 415.2 297C438.3 279 461.7 251 484.8 250C508 249 531 275 554 276C577 277 600 253 623 244C646 235 669 241 692.2 255C715.3 269 738.7 291 761.8 295C785 299 808 285 831 289C854 293 877 315 888.5 326L900 337L900 95L888.5 96C877 97 854 99 831 106C808 113 785 125 761.8 137C738.7 149 715.3 161 692.2 159C669 157 646 141 623 134C600 127 577 129 554 129C531 129 508 127 484.8 124C461.7 121 438.3 117 415.2 114C392 111 369 109 346 110C323 111 300 115 277 135C254 155 231 191 207.8 189C184.7 187 161.3 147 138.2 134C115 121 92 135 69 145C46 155 23 161 11.5 164L0 167Z" fill="#0030a4"></path><path d="M0 313L11.5 329C23 345 46 377 69 377C92 377 115 345 138.2 361C161.3 377 184.7 441 207.8 459C231 477 254 449 277 435C300 421 323 421 346 427C369 433 392 445 415.2 422C438.3 399 461.7 341 484.8 331C508 321 531 359 554 359C577 359 600 321 623 310C646 299 669 315 692.2 326C715.3 337 738.7 343 761.8 356C785 369 808 389 831 409C854 429 877 449 888.5 459L900 469L900 335L888.5 324C877 313 854 291 831 287C808 283 785 297 761.8 293C738.7 289 715.3 267 692.2 253C669 239 646 233 623 242C600 251 577 275 554 274C531 273 508 247 484.8 248C461.7 249 438.3 277 415.2 295C392 313 369 321 346 310C323 299 300 269 277 288C254 307 231 375 207.8 378C184.7 381 161.3 319 138.2 304C115 289 92 321 69 318C46 315 23 277 11.5 258L0 239Z" fill="#003aae"></path><path d="M0 355L11.5 379C23 403 46 451 69 448C92 445 115 391 138.2 395C161.3 399 184.7 461 207.8 481C231 501 254 479 277 478C300 477 323 497 346 504C369 511 392 505 415.2 482C438.3 459 461.7 419 484.8 411C508 403 531 427 554 417C577 407 600 363 623 353C646 343 669 367 692.2 384C715.3 401 738.7 411 761.8 422C785 433 808 445 831 469C854 493 877 529 888.5 547L900 565L900 467L888.5 457C877 447 854 427 831 407C808 387 785 367 761.8 354C738.7 341 715.3 335 692.2 324C669 313 646 297 623 308C600 319 577 357 554 357C531 357 508 319 484.8 329C461.7 339 438.3 397 415.2 420C392 443 369 431 346 425C323 419 300 419 277 433C254 447 231 475 207.8 457C184.7 439 161.3 375 138.2 359C115 343 92 375 69 375C46 375 23 343 11.5 327L0 311Z" fill="#0044b8"></path><path d="M0 601L11.5 601C23 601 46 601 69 601C92 601 115 601 138.2 601C161.3 601 184.7 601 207.8 601C231 601 254 601 277 601C300 601 323 601 346 601C369 601 392 601 415.2 601C438.3 601 461.7 601 484.8 601C508 601 531 601 554 601C577 601 600 601 623 601C646 601 669 601 692.2 601C715.3 601 738.7 601 761.8 601C785 601 808 601 831 601C854 601 877 601 888.5 601L900 601L900 563L888.5 545C877 527 854 491 831 467C808 443 785 431 761.8 420C738.7 409 715.3 399 692.2 382C669 365 646 341 623 351C600 361 577 405 554 415C531 425 508 401 484.8 409C461.7 417 438.3 457 415.2 480C392 503 369 509 346 502C323 495 300 475 277 476C254 477 231 499 207.8 479C184.7 459 161.3 397 138.2 393C115 389 92 443 69 446C46 449 23 401 11.5 377L0 353Z" fill="#004ec2"></path></svg>